<svg id="Layer_1" data-name="Layer 1" xmlns="http://www.w3.org/2000/svg" xmlns:xlink="http://www.w3.org/1999/xlink" viewBox="0 0 1023.02 1023.02"><defs><style>.cls-1{fill:#e6e7e8;}.cls-2{fill:#d1d3d4;}.cls-3{fill:#d8d8d8;}.cls-4{fill:#e2e2e2;}.cls-5{fill:#fff;}.cls-6{fill:#3f3d56;}.cls-7{fill:#f5333f;}.cls-8{fill:#f2f2f2;}.cls-9{fill:url(#linear-gradient);}.cls-10{fill:#db2839;}.cls-11{fill:#d8e2f1;}.cls-12{fill:#cecece;}.cls-13{fill:none;stroke:#3f3d56;stroke-linejoin:round;stroke-width:0.5px;}</style><linearGradient id="linear-gradient" x1="719.06" y1="658.63" x2="719.06" y2="539.87" gradientUnits="userSpaceOnUse"><stop offset="0" stop-color="#f1f2f2"/><stop offset="1" stop-color="#939598"/></linearGradient></defs><path class="cls-1" d="M1015.26,745.42c-73,46.45-196.38,95.47-390.41,92.65C260.43,832.77,43.11,807.59,11.3,665.8s135.17-273,420.08-231.9c265.74,38.31,390.83-105.52,583.88-91.71C1015.77,389.28,1015.26,677,1015.26,745.42Z"/><ellipse class="cls-2" cx="425.22" cy="692.85" rx="295.07" ry="7.9"/><path class="cls-1" d="M350.81,442.2V586.93H407.1V440.19l-13.07.46V411h-9.47L383,345.45c3.82-2.49,6.51-8.41,6.51-15.32a25.36,25.36,0,0,0-.69-5.89,12.05,12.05,0,0,0,1.3-14.68A12.06,12.06,0,1,0,406,291.4l-.24-.21a12.06,12.06,0,1,0-16.24-11.32c0,.18,0,.36,0,.53a12.05,12.05,0,0,0-15.06,8,12.18,12.18,0,0,0-.39,1.69,12.06,12.06,0,1,0-8.67,22.17,2.17,2.17,0,0,0,0,.26,58,58,0,0,0,4.26,9.77,24.43,24.43,0,0,0-1.25,7.82c0,6.91,2.69,12.83,6.52,15.32L373.36,411h-9.48v30.69ZM386,304h0l.52,0c.11.36.23.71.37,1a10,10,0,0,0-.92-1Z"/><rect class="cls-3" x="319.82" y="492.28" width="170.86" height="197.67"/><rect class="cls-4" x="382.22" y="649.75" width="46.07" height="40.2"/><path class="cls-1" d="M262.88,232.2c0,.14,0,.29,0,.44A20,20,0,0,0,269,247.05a21,21,0,0,0,1,1.87,40.33,40.33,0,0,0-2.07,13c0,15.27,7.87,27.64,17.58,27.64s17.59-12.37,17.59-27.64a41.64,41.64,0,0,0-1.14-9.82,20.08,20.08,0,0,0,2.16-24.46,20.1,20.1,0,1,0,26.45-30.27l-.4-.34a20.11,20.11,0,1,0-27.07-18.87c0,.3,0,.59,0,.88A20.13,20.13,0,0,0,278,192.43a19.63,19.63,0,0,0-.64,2.83,20.1,20.1,0,1,0-20.56,34.55A20.3,20.3,0,0,0,262.88,232.2Zm34.33-13.8.87,0a17.27,17.27,0,0,0,.62,1.75,21,21,0,0,0-1.54-1.72Z"/><path class="cls-3" d="M275.43,427h20.1l-.71-30.15h0l-2.63-110.55a12.88,12.88,0,0,1-13.41,0l-2.63,110.55h0Z"/><polygon class="cls-3" points="238.58 448.72 238.58 689.95 332.38 689.95 332.38 445.38 310.61 446.15 310.61 396.8 260.36 396.8 260.36 447.95 238.58 448.72"/><path class="cls-1" d="M502.43,232.2c0,.14,0,.29,0,.44a20,20,0,0,0,6.09,14.41,18.7,18.7,0,0,0,1,1.87,40.61,40.61,0,0,0-2.08,13c0,15.27,7.88,27.64,17.59,27.64s17.59-12.37,17.59-27.64a41.65,41.65,0,0,0-1.15-9.82,20.08,20.08,0,0,0,2.17-24.46,20.1,20.1,0,1,0,26.44-30.27l-.4-.34a20.11,20.11,0,1,0-27.06-18.87c0,.3,0,.59,0,.88a20.12,20.12,0,0,0-25.11,13.36,19.66,19.66,0,0,0-.65,2.83,20.1,20.1,0,0,0-20.56,34.55A20.36,20.36,0,0,0,502.43,232.2Zm34.33-13.8c.29,0,.57,0,.86,0,.18.6.39,1.18.62,1.75a19.29,19.29,0,0,0-1.54-1.72Z"/><path class="cls-3" d="M515,427h20.1l-3.35-140.71a19.77,19.77,0,0,1-13.4,0Z"/><polygon class="cls-3" points="478.13 448.72 478.13 689.95 571.94 689.95 571.94 445.38 564.23 445.65 550.15 446.15 550.15 396.8 499.9 396.8 499.9 447.95 478.13 448.72"/><rect class="cls-5" x="430.75" y="516.14" width="23.17" height="23.17"/><rect class="cls-5" x="393.67" y="516.14" width="23.17" height="23.17"/><rect class="cls-5" x="356.59" y="516.14" width="23.17" height="23.17"/><rect class="cls-5" x="430.75" y="553.22" width="23.17" height="23.17"/><rect class="cls-5" x="393.67" y="553.22" width="23.17" height="23.17"/><rect class="cls-5" x="356.59" y="553.22" width="23.17" height="23.17"/><rect class="cls-5" x="430.75" y="590.3" width="23.17" height="23.17"/><rect class="cls-5" x="393.67" y="590.3" width="23.17" height="23.17"/><rect class="cls-5" x="356.59" y="590.3" width="23.17" height="23.17"/><rect class="cls-5" x="273.9" y="506.87" width="23.17" height="23.17"/><rect class="cls-5" x="273.9" y="543.95" width="23.17" height="23.17"/><rect class="cls-5" x="273.9" y="581.03" width="23.17" height="23.17"/><rect class="cls-5" x="273.9" y="618.11" width="23.17" height="23.17"/><rect class="cls-5" x="513.25" y="506.87" width="23.17" height="23.17"/><rect class="cls-5" x="513.25" y="543.95" width="23.17" height="23.17"/><rect class="cls-5" x="513.25" y="581.03" width="23.17" height="23.17"/><rect class="cls-5" x="513.25" y="618.11" width="23.17" height="23.17"/><ellipse class="cls-2" cx="555.93" cy="742.77" rx="255.5" ry="12.06"/><rect class="cls-6" x="569.46" y="509.4" width="9.39" height="66.7"/><rect class="cls-6" x="395.68" y="643.74" width="81.73" height="31.94"/><rect class="cls-6" x="403.19" y="671.92" width="402.99" height="35.7"/><polygon class="cls-7" points="469.42 689.76 566.17 689.76 566.17 568.12 493.84 568.12 469.42 629.47 469.42 689.76"/><rect class="cls-8" x="509.81" y="575.63" width="41.33" height="41.33"/><polygon class="cls-8" points="478.81 617.43 505.12 617.43 505.12 576.1 493.84 576.1 478.81 617.43"/><rect class="cls-6" x="539.87" y="640.45" width="9.39" height="17.85"/><path class="cls-6" d="M497.13,620.25h-.47a8.92,8.92,0,0,1-8.92-8.92h0a8.92,8.92,0,0,1,8.92-8.93h.47v17.85Z"/><path class="cls-6" d="M846.58,689.76h-.47a8.92,8.92,0,0,1-8.92-8.92h0a8.92,8.92,0,0,1,8.92-8.92h.47v17.84Z"/><path class="cls-7" d="M431.84,671.78a46.46,46.46,0,0,0-36.12,18H377.36l17.85-49.71,83.13-16.4L476,689.76h-8A46.49,46.49,0,0,0,431.84,671.78Z"/><circle class="cls-6" cx="430.9" cy="701.51" r="40.86"/><circle class="cls-4" cx="430.9" cy="701.51" r="21.51"/><circle class="cls-6" cx="800.08" cy="706.2" r="35.7"/><circle class="cls-4" cx="800.08" cy="706.2" r="18.79"/><rect class="cls-6" x="563.36" y="551.21" width="19.73" height="142.32"/><rect class="cls-6" x="563.36" y="667.69" width="283.69" height="8.45"/><rect class="cls-6" x="491.49" y="619.31" width="9.39" height="3.76"/><circle class="cls-6" cx="574.16" cy="511.28" r="13.15"/><rect class="cls-7" x="563.36" y="661.31" width="304.45" height="10.61"/><rect class="cls-9" x="563.36" y="637.27" width="311.41" height="24.03"/><rect class="cls-7" x="563.15" y="628.94" width="9.86" height="51.31"/><rect class="cls-6" x="686.25" y="346.99" width="7.09" height="242.53" transform="translate(866.62 -346.5) rotate(68.07)"/><rect class="cls-6" x="779.22" y="434.77" width="0.96" height="22.89" transform="translate(-66.67 145.06) rotate(-10.2)"/><rect class="cls-6" x="798.14" y="425.49" width="0.96" height="32.23" transform="translate(1506.46 1017.61) rotate(-169.8)"/><rect class="cls-6" x="794.2" y="425.49" width="0.96" height="32.23" transform="translate(1498.64 1016.91) rotate(-169.8)"/><rect class="cls-6" x="782.93" y="433.65" width="0.96" height="22.89" transform="translate(-66.42 145.7) rotate(-10.2)"/><path class="cls-6" d="M790.23,479.52V476.2h-3v4.61a1.5,1.5,0,0,0,1.49,1.5,2.56,2.56,0,1,1-2.55,2.55,1.48,1.48,0,0,0-.55-1.15,1.5,1.5,0,0,0-1.24-.32l-1.53.3a1.5,1.5,0,1,0,.58,2.94h0a5.55,5.55,0,1,0,6.76-7.11Z"/><path class="cls-10" d="M794.33,478h-11.2a.6.6,0,0,1-.59-.59v-1.52a.6.6,0,0,1,.59-.59h11.2a.59.59,0,0,1,.59.59v1.52A.59.59,0,0,1,794.33,478Z"/><path class="cls-11" d="M797.53,456.64,796.15,458l.94,1.35.38.54a2.54,2.54,0,0,1,.41,1l1.55-1.55Z"/><path class="cls-7" d="M799.81,459.91l-.38-.54h0l-1.9-2.73h0l-.69-1a2.51,2.51,0,0,0-2.08-1.09h-12a2.51,2.51,0,0,0-2.08,1.09l-3,4.26a2.52,2.52,0,0,0-.17,2.62l1.32,2.55h0l1.59,3.05,1.93,3.71,1.58,3.05h0l.2.37h9.25L800,462.53a2.54,2.54,0,0,0-.17-2.62Z"/><rect class="cls-8" x="757.16" y="514.85" width="50.84" height="91.79"/><polygon class="cls-12" points="808 606.64 818.58 596.06 818.58 518.41 818.78 504.07 808 514.85 808 606.64"/><polygon class="cls-3" points="757.16 514.85 767.91 504.1 818.78 504.1 808 514.85 757.16 514.85"/><polygon class="cls-6" points="758.25 606.64 808 606.64 817.96 596.71 817.96 606.92 807.94 616.91 758.25 616.91 758.25 606.64"/><line class="cls-13" x1="767.91" y1="504.1" x2="788.53" y2="487.4"/><line class="cls-13" x1="757.16" y1="514.85" x2="788.53" y2="487.4"/><line class="cls-13" x1="808" y1="514.85" x2="788.53" y2="487.4"/><line class="cls-13" x1="818.78" y1="504.07" x2="788.73" y2="487.42"/><rect class="cls-12" x="782.58" y="514.85" width="0.56" height="91.79"/><rect class="cls-12" x="778.45" y="553.08" width="1.66" height="3.68" transform="translate(1558.56 1109.83) rotate(180)"/><rect class="cls-12" x="785.39" y="553.08" width="1.66" height="3.68" transform="translate(1572.45 1109.83) rotate(180)"/><rect class="cls-8" x="665.5" y="551.21" width="53.39" height="86.07"/><polygon class="cls-3" points="665.5 551.21 676.79 544.55 727.6 544.55 718.89 551.21 665.5 551.21"/><polygon class="cls-12" points="727.6 544.55 727.6 637.27 718.89 637.27 718.89 551.21 727.6 544.55"/><rect class="cls-12" x="692.02" y="551.21" width="0.56" height="86.07"/><rect class="cls-12" x="687.89" y="589.43" width="1.66" height="3.68" transform="translate(1377.45 1182.54) rotate(180)"/><rect class="cls-12" x="694.83" y="589.43" width="1.66" height="3.68" transform="translate(1391.33 1182.54) rotate(180)"/><polygon class="cls-5" points="515.11 637.27 508.11 651.2 503.44 651.2 515.11 637.27"/><polygon class="cls-5" points="512.16 651.2 508.91 651.2 511.92 645.24 515.11 645.24 512.16 651.2"/><polygon class="cls-5" points="508.91 659.16 515.9 645.24 520.57 645.24 508.91 659.16"/></svg>