<svg xmlns="http://www.w3.org/2000/svg" viewBox="0 0 1023.02 1023.02"><defs><style>.cls-1{fill:#e6e7e8;}.cls-2{fill:#3f3d56;}.cls-3{fill:#fff;}.cls-4{fill:#f5333f;}</style></defs><g id="Layer_4" data-name="Layer 4"><path class="cls-1" d="M121.71,295.68c65.3-47.45,210.87-165.47,380.64-88.27,253.85,115.45,450.32,172.27,387,335.27C830.58,693.88,653.46,953.47,240,787.83c-47.81-19.15-86.77-39.91-118.3-61.64"/><path class="cls-2" d="M521.11,377.34l0,.23a4.41,4.41,0,0,0,3.57,5.1h0a4.4,4.4,0,0,0,5.1-3.57l0-.23h0l-8.67-1.53Z"/><ellipse class="cls-3" cx="363.63" cy="668.81" rx="94.82" ry="20.04" transform="translate(-74.16 46.02) rotate(-6.57)"/><ellipse class="cls-2" cx="365.67" cy="666.1" rx="49.04" ry="10.37" transform="translate(-73.84 46.23) rotate(-6.57)"/><path class="cls-2" d="M410.29,585.69l-10.85,69.47a14.88,14.88,0,0,1-13.33,12.52l-29.88,1.88c-8.64.8-15.42-3.29-15.53-12l2.2-115.82L399,527.7Z"/><path class="cls-2" d="M570.22,546.51l-145.4,40s-33.44,5.51-52.36-33.22,137.67-84.84,137.67-84.84l77.42,51.58Z"/><path class="cls-4" d="M646.71,522.07,574.46,545.4s-21.58,8-32.21-10-32.12-66.86-32.12-66.86l67.49-65.86,68,107.37Z"/><path class="cls-2" d="M639.42,523.65c14.92-1.3,40.27-18.81,52-27.83s9-20.05,8.06-26.18c-10.07-42-26.3-75.72-36.08-94.32-3.13-5.93-5.59-10.31-7-13-5.8-10.91-16.19-9.61-16.19-9.61a218,218,0,0,0-25,3.69c-9.2,2-17.48,6.75-24.13,11.68,7.13,21.44-10.18,32.62-13.46,34.51,2.92,8.31,33.08,93.87,38,103.13C620.78,515.5,624.52,524.94,639.42,523.65Z"/><ellipse class="cls-3" cx="635.37" cy="433.19" rx="21" ry="38.56" transform="translate(-117.14 274.81) rotate(-22.4)"/><path class="cls-3" d="M344.72,545.66l-24-51.34c-8.9-19.17,14.8-35.26,14.8-35.26s90-41.05,154.19-71.3,143-69.93,162.22-71.32,31.76.45,36.49,19-5.82,22.86-11.58,26.88c-4.11,2.86-15.47,9.14-15.47,9.14-3.13-5.93-3.54-6.46-4.94-9.11-5.8-10.91-16.19-9.61-16.19-9.61a218,218,0,0,0-25,3.69c-9.2,2-17.48,6.75-24.13,11.68,7.13,21.44-10.18,32.62-13.46,34.51h0l-80.79,80.2a7.34,7.34,0,0,0-1.73,7.71L499,501.28a7.23,7.23,0,0,1-4.47,9.31c-26.5,9-119.95,40.79-130.59,44.08C351.5,558.5,344.72,545.66,344.72,545.66Z"/><ellipse class="cls-4" cx="635.37" cy="433.19" rx="10.13" ry="18.59" transform="translate(-117.14 274.81) rotate(-22.4)"/></g></svg>