<svg xmlns="http://www.w3.org/2000/svg" viewBox="0 0 1023.02 1023.02"><defs><style>.cls-1{fill:#e6e7e8;}.cls-2{fill:#2f2e41;}.cls-3{fill:#3f3d56;}.cls-4{fill:#fff;}.cls-5{fill:#f5333f;}.cls-6{fill:#d1d3d4;}.cls-7{fill:#ffb8b8;}.cls-8{opacity:0.2;isolation:isolate;}</style></defs><g id="Layer_3" data-name="Layer 3"><path class="cls-1" d="M970.75,746.44c-59.12-4.58-291.26,71.59-429.5,6.65C400.71,687.09,39.37,725.2,52.62,561.2S235.85,230.38,618.77,265c87.22,7.87,191.48,43.23,352,7.45"/><rect class="cls-2" x="727.51" y="275.59" width="102.93" height="89.09"/><rect class="cls-3" x="378.93" y="300.68" width="294.95" height="244.78"/><rect class="cls-4" x="467.59" y="341.33" width="117.63" height="14.7"/><rect class="cls-4" x="419.15" y="375.93" width="81.74" height="8.65"/><rect class="cls-4" x="484.89" y="433.02" width="81.74" height="8.65"/><rect class="cls-5" x="550.62" y="375.93" width="81.74" height="8.65"/><rect class="cls-4" x="741.35" y="325.76" width="74.39" height="4"/><rect class="cls-5" x="740.48" y="334.57" width="74.39" height="4"/><rect class="cls-4" x="741.35" y="343.38" width="74.39" height="4"/><rect class="cls-5" x="741.35" y="296.35" width="74.39" height="4"/><rect class="cls-4" x="740.48" y="305.16" width="74.39" height="4"/><rect class="cls-5" x="741.35" y="313.97" width="74.39" height="4"/><rect class="cls-3" x="756.92" y="305" width="102.93" height="89.09"/><rect class="cls-5" x="770.76" y="355.17" width="74.39" height="4"/><rect class="cls-5" x="769.89" y="363.98" width="74.39" height="4"/><rect class="cls-5" x="770.76" y="372.79" width="74.39" height="4"/><rect class="cls-5" x="770.76" y="325.76" width="74.39" height="4"/><rect class="cls-5" x="769.89" y="334.57" width="74.39" height="4"/><rect class="cls-5" x="770.76" y="343.38" width="74.39" height="4"/><rect class="cls-3" x="236.15" y="354.03" width="102.93" height="89.09"/><rect class="cls-5" x="249.98" y="404.2" width="74.39" height="4"/><rect class="cls-5" x="249.12" y="413.01" width="74.39" height="4"/><rect class="cls-5" x="249.98" y="421.82" width="74.39" height="4"/><rect class="cls-5" x="249.98" y="374.79" width="74.39" height="4"/><rect class="cls-5" x="249.12" y="383.6" width="74.39" height="4"/><rect class="cls-5" x="249.98" y="392.41" width="74.39" height="4"/><rect class="cls-4" x="419.15" y="404.47" width="214.51" height="8.65"/><rect class="cls-5" x="419.15" y="433.02" width="48.01" height="8.65"/><rect class="cls-4" x="419.15" y="490.1" width="48.01" height="8.65"/><rect class="cls-4" x="584.36" y="433.02" width="48.01" height="8.65"/><rect class="cls-4" x="419.15" y="461.56" width="214.51" height="8.65"/><rect class="cls-4" x="507.81" y="490.1" width="125.85" height="8.65"/><polygon class="cls-2" points="613.16 380.78 611.78 379.73 705.46 257.43 798.44 257.43 798.44 259.16 706.31 259.16 613.16 380.78"/><polygon class="cls-2" points="424.21 438 333.17 331.61 304.1 331.61 304.1 329.88 333.81 329.88 425.33 436.68 424.21 438"/><circle class="cls-5" cx="798.44" cy="257.43" r="13.84"/><circle class="cls-5" cx="304.1" cy="330.75" r="13.84"/><ellipse class="cls-6" cx="766.42" cy="721.38" rx="143.64" ry="22.89"/><rect class="cls-3" x="676.31" y="594.01" width="64.23" height="82.58" transform="translate(-102.79 137.9) rotate(-10.37)"/><rect class="cls-5" x="680.22" y="609.22" width="47.44" height="3.12" transform="translate(-98.45 136.7) rotate(-10.37)"/><rect class="cls-5" x="681.72" y="617.4" width="47.44" height="3.12" transform="translate(-99.9 137.1) rotate(-10.37)"/><rect class="cls-5" x="683.22" y="625.57" width="47.44" height="3.12" transform="translate(-101.34 137.5) rotate(-10.37)"/><rect class="cls-5" x="684.71" y="633.75" width="47.44" height="3.12" transform="translate(-102.79 137.9) rotate(-10.37)"/><rect class="cls-5" x="686.21" y="641.92" width="47.44" height="3.12" transform="translate(-104.24 138.31) rotate(-10.37)"/><rect class="cls-5" x="687.7" y="650.09" width="47.44" height="3.12" transform="translate(-105.68 138.71) rotate(-10.37)"/><rect class="cls-5" x="689.2" y="658.27" width="47.44" height="3.12" transform="translate(-107.13 139.11) rotate(-10.37)"/><path class="cls-7" d="M726.57,571.85l.82,8.22s-4.93,18.08,5.75,18.08,2.47-18.08,2.47-18.08l.82-6.58Z"/><path class="cls-7" d="M801.21,544.47l-3.77,7.35s-14,12.5-5,18.3,11.88-13.84,11.88-13.84l4.26-5.08Z"/><path class="cls-2" d="M739.71,579.25l11.51,78.07L757,713.21s4.93,12.32,21.37,1.64l-2.46-32.05L774.23,654s-1.64-27.94-3.29-32.87.83-21.37.83-21.37l6.57-27.12Z"/><path class="cls-2" d="M758.62,711.56,752,719s-9.86-3.29-12.33,3.29,18.91,8.21,18.91,8.21,22.19,1.65,22.19,0-.6-14.21-3.59-14.91S758.62,711.56,758.62,711.56Z"/><path class="cls-2" d="M770.94,575.14l11.51,82.18,5.75,55.89s4.93,12.32,21.37,1.64l-2.46-32.05L805.46,654s-1.64-27.94-3.29-32.87.83-21.37.83-21.37l-1.65-30.41Z"/><path class="cls-2" d="M789.85,711.56l-6.58,7.4s-9.86-3.29-12.33,3.29,18.91,8.21,18.91,8.21,22.19,1.65,22.19,0-.6-14.21-3.59-14.91S789.85,711.56,789.85,711.56Z"/><circle class="cls-7" cx="746.29" cy="428.03" r="17.26"/><polygon class="cls-7" points="759.03 435.83 766.42 448.16 747.52 456.38 745.06 441.59 759.03 435.83"/><path class="cls-5" d="M768.48,446.93s-17.26-1.65-23.83,9L728.42,468.3a9.35,9.35,0,0,0-3.61,8.67l14.08,106.38,20.55-.82L793.13,576l9.87-2.47-4.93-43.56s-5.76-17.25.82-28.76L795.6,460.9l-23-9Z"/><path class="cls-5" d="M729.85,471.58l-1.23-2.05s-1.64,0-1.64,3.29-2.88,74.37-2.88,74.37l-.82,27.12L738.89,576l5.76-51-2.47-33.69Z"/><path class="cls-5" d="M784.09,459.26l11.51,1.64a76.58,76.58,0,0,1,11.51,15.61c4.93,9.05,19.72,26.3,16.43,39.45s-13.15,37-13.15,37l-15.61-6.58s12.33-28.76,11.5-31.23-10.68-17.26-10.68-17.26Z"/><path class="cls-2" d="M734.37,418.57s-14-.82-4.93-9.86c0,0,7.4-3.28,10.69-1.64,0,0,4.93-3.29,4.93-1.64,0,0,17.26-4.94,19.72,12.32s-1.64,25.48-1.64,25.48l-11.51-.82s2.47-14-6.57-12.33c0,0-7.4,2.47-8.22,0S734.37,418.57,734.37,418.57Z"/><polygon class="cls-8" points="740.95 574.73 748.34 525.41 743.41 495.01 745.06 528.08 740.13 574.73 740.95 574.73"/><polygon class="cls-4" points="772.88 475.62 766.16 501.3 759.66 502.55 772.88 475.62"/><polygon class="cls-4" points="771.81 500.22 767.28 501.09 770.18 490.08 774.61 489.24 771.81 500.22"/><polygon class="cls-4" points="769.01 514.71 775.73 489.02 782.23 487.78 769.01 514.71"/></g></svg>