<svg xmlns="http://www.w3.org/2000/svg" xmlns:xlink="http://www.w3.org/1999/xlink" viewBox="0 0 1023.02 1023.02"><defs><style>.cls-1{fill:#e6e7e8;}.cls-2{fill:#ccc;}.cls-3,.cls-6{fill:none;}.cls-3{stroke:#2f2e41;stroke-miterlimit:10;stroke-width:8.85px;}.cls-4{fill:#e6e6e6;}.cls-5{fill:#f5333f;}.cls-6{stroke:#f5333f;stroke-linecap:round;stroke-linejoin:round;stroke-width:8.85px;}.cls-7{fill:#ffb8b8;}.cls-8{fill:#2f2e41;}.cls-9{fill:#ffb9b9;}.cls-10{fill:#d1d3d4;}.cls-11{fill:#a7a9ac;}.cls-12{fill:url(#linear-gradient);}.cls-13{fill:#bcbec0;}.cls-14{fill:url(#linear-gradient-2);}.cls-15{fill:#d0d0d0;}.cls-16{fill:#fff;}</style><linearGradient id="linear-gradient" x1="-988.73" y1="762.01" x2="-988.73" y2="708.12" gradientTransform="matrix(-1, 0, 0, 1, -441.83, 0)" gradientUnits="userSpaceOnUse"><stop offset="0" stop-color="#e6e7e8"/><stop offset="1" stop-color="#d1d3d4"/></linearGradient><linearGradient id="linear-gradient-2" x1="-1009.81" y1="730.21" x2="-1009.81" y2="346.33" gradientTransform="matrix(-1, 0, 0, 1, -441.83, 0)" gradientUnits="userSpaceOnUse"><stop offset="0" stop-color="#f1f2f2"/><stop offset="1" stop-color="#d1d3d4"/></linearGradient></defs><g id="Layer_2" data-name="Layer 2"><path class="cls-1" d="M31.51,767.35c50.28.2,120.81,5.38,219.74,19.64,339,48.85,567.38,80.88,683.31-63,75.76-94,155.35-343.49-328.28-346.91-368-2.61-458.84-143.56-574.22-182.36"/><ellipse class="cls-2" cx="583.25" cy="752.89" rx="230.02" ry="21.83"/><ellipse class="cls-2" cx="305.6" cy="749.12" rx="100.14" ry="12.54"/><line class="cls-3" x1="416.15" y1="460.17" x2="31.81" y2="460.17"/><path class="cls-4" d="M351.12,552.51l36.29-36.64c1-1,3.88-6.28,3.88-6.28l-1.16-1.15s-5.37,3.15-6.21,3.94L347.63,549a2.47,2.47,0,0,0,0,3.49A2.53,2.53,0,0,0,351.12,552.51Z"/><path class="cls-5" d="M370.19,533.7,365.83,530a1.22,1.22,0,0,0-1.67.08l-18.77,19.55a1.23,1.23,0,0,0,.22,1.89L350,555a1.23,1.23,0,0,0,1.54-.18l18.76-19.37A1.23,1.23,0,0,0,370.19,533.7Z"/><line class="cls-6" x1="416.15" y1="491.3" x2="184.69" y2="491.3"/><line class="cls-6" x1="151.13" y1="490.97" x2="82.76" y2="490.97"/><path class="cls-5" d="M51,495.1H31.83v-8.85H51a4.43,4.43,0,0,1,0,8.85Z"/><line class="cls-3" x1="151.13" y1="521.18" x2="31.51" y2="521.18"/><path class="cls-7" d="M241.1,477.75H219L245,554l-2.88,9.72a8.64,8.64,0,0,0,5.41,10.61h0a8.65,8.65,0,0,0,11.34-9.89L256.74,554Z"/><circle class="cls-7" cx="280.19" cy="381.98" r="20.2"/><path class="cls-7" d="M287.36,393.05l-24.11-2.6c1.93,8.4-.39,16.42-6.51,24.11l26.71,3.25Z"/><path class="cls-5" d="M300,420a9.48,9.48,0,0,0-6.89-7.74L284.75,410,261.3,408l-14.24,5.6c-.43.17-.85.34-1.26.52-17.45,7.58-26.32,27.13-21.38,45.49,6.77,25.2,15.55,46,29.06,56.54l63.2,14.34C318.67,499.59,311.26,461.3,300,420Z"/><polygon class="cls-5" points="244.36 437.36 225.46 435.4 216.34 490.13 244.36 490.13 244.36 437.36"/><path class="cls-8" d="M318.13,526.35a9.07,9.07,0,0,0-4.42-6.91c-24.35-14.3-26.5-28.18-33.52-51.2-9.1-29.85-6-44.05,11.88-55.08a2.16,2.16,0,0,0-.52-3.92l-3.64-1a2.13,2.13,0,0,0-1.12,0c-16.32,4.12-17.27,14.67-26.31,31.05-1.38,2.5-4.63,3-8,3.14a5.31,5.31,0,0,1-5.44-5c-.43-6.79-.16-11.2-.35-24.54a.89.89,0,0,0-.3-.74.87.87,0,0,0-1.24.09l-9,4.68a1,1,0,0,0-.2.63c1.55,23.32,2.24,34.27,6.77,50.28,1.62,19.79,5.31,44.12,2.33,59.47l7.82,200h19.85l13.7-124.77,35.51,124.77h16.94Z"/><path class="cls-8" d="M290.62,372.86l12.5-2.13v-.08a12.26,12.26,0,0,0-10.4-13.87l-18.56-2.65A19.33,19.33,0,0,0,257,360.39h0a19.35,19.35,0,0,0-2.27,22.67l8.52,14.56,14.32,2.71Z"/><path class="cls-8" d="M365.19,743.18h0a6.55,6.55,0,0,0-3.75-6.55L334.53,724,321,725l-1.87,12.84a9.69,9.69,0,0,0-.1,1.42,9.82,9.82,0,0,0,9.81,9.82h29.84A6.56,6.56,0,0,0,365.19,743.18Z"/><path class="cls-8" d="M297.43,743.18h0a6.55,6.55,0,0,0-3.75-6.55L266.77,724l-13.55,1-1.87,12.84a9.69,9.69,0,0,0-.1,1.42,9.82,9.82,0,0,0,9.82,9.82H290.9A6.56,6.56,0,0,0,297.43,743.18Z"/><path class="cls-9" d="M320.41,494.68l-13.1-73.11h0a36.55,36.55,0,0,0-12.89,32.82l6.22,48,40.18,40.84,11.76,7.57a9.11,9.11,0,0,0,10.58-.5h0a9.13,9.13,0,0,0-2.64-15.8L347.61,530Z"/><path class="cls-5" d="M316.88,441.94a33,33,0,0,0-25-30h0l-.65,68.41h28.66Z"/><ellipse class="cls-7" cx="286.09" cy="384.72" rx="3.55" ry="4.26"/><rect class="cls-10" x="414.84" y="347.43" width="266.76" height="412.05"/><polygon class="cls-11" points="743.55 737.23 743.55 325.44 678.87 347.43 678.87 759.48 743.55 737.23"/><polygon class="cls-12" points="414.84 759.48 678.95 759.48 678.95 737.49 456.66 737.49 414.84 759.48"/><polygon class="cls-13" points="414.84 347.43 678.87 347.43 743.55 325.44 457.08 325.44 414.84 347.43"/><rect class="cls-14" x="457.08" y="347.43" width="221.8" height="390.07"/><rect class="cls-15" x="655.74" y="453.62" width="23.21" height="305.86"/><rect class="cls-15" x="457.08" y="453.62" width="208.83" height="23.21"/><rect class="cls-15" x="549.89" y="530.44" width="23.21" height="208.83" transform="translate(1196.34 73.36) rotate(90)"/><rect class="cls-8" x="474.34" y="405.2" width="18.82" height="34.13"/><rect class="cls-8" x="497.36" y="405.2" width="18.82" height="34.13"/><rect class="cls-8" x="527.73" y="405.2" width="18.82" height="34.13"/><rect class="cls-8" x="550.75" y="405.2" width="18.82" height="34.13"/><rect class="cls-8" x="581.12" y="405.2" width="18.82" height="34.13"/><rect class="cls-8" x="604.14" y="405.2" width="18.82" height="34.13"/><rect class="cls-8" x="634.91" y="405.2" width="18.82" height="34.13"/><rect class="cls-8" x="657.94" y="405.2" width="18.82" height="34.13"/><rect class="cls-5" x="481.86" y="439.33" width="2.23" height="25.89"/><rect class="cls-5" x="505.66" y="439.33" width="2.23" height="25.89"/><rect class="cls-5" x="536.02" y="439.33" width="2.23" height="25.89"/><rect class="cls-5" x="559.05" y="439.33" width="2.23" height="25.89"/><rect class="cls-5" x="589.41" y="439.33" width="2.23" height="25.89"/><rect class="cls-5" x="612.44" y="439.33" width="2.23" height="25.89"/><rect class="cls-5" x="643.2" y="439.33" width="2.23" height="25.89"/><rect class="cls-5" x="666.23" y="439.33" width="2.23" height="320.15"/><rect class="cls-5" x="573.49" y="372.48" width="2.23" height="185.49" transform="translate(1039.82 -109.38) rotate(90)"/><rect class="cls-8" x="474.34" y="556.32" width="18.82" height="34.13"/><rect class="cls-8" x="474.34" y="514.22" width="7.52" height="34.13"/><rect class="cls-5" x="485.63" y="514.22" width="7.52" height="34.13"/><rect class="cls-5" x="497.36" y="514.22" width="7.52" height="34.13"/><rect class="cls-8" x="508.66" y="514.22" width="7.52" height="34.13"/><rect class="cls-8" x="527.73" y="556.32" width="7.52" height="34.13"/><rect class="cls-5" x="539.03" y="556.32" width="7.52" height="34.13"/><rect class="cls-5" x="550.76" y="556.32" width="7.52" height="34.13"/><rect class="cls-8" x="562.06" y="556.32" width="7.52" height="34.13"/><rect class="cls-8" x="497.36" y="556.32" width="18.82" height="34.13"/><rect class="cls-8" x="527.73" y="514.22" width="18.82" height="34.13"/><rect class="cls-8" x="550.76" y="514.22" width="18.82" height="34.13"/><rect class="cls-8" x="581.12" y="556.32" width="18.82" height="34.13"/><rect class="cls-8" x="604.15" y="556.32" width="18.82" height="34.13"/><rect class="cls-8" x="581.12" y="514.22" width="7.52" height="34.13"/><rect class="cls-5" x="592.42" y="514.22" width="7.52" height="34.13"/><rect class="cls-5" x="604.15" y="514.22" width="7.52" height="34.13"/><rect class="cls-8" x="615.45" y="514.22" width="7.52" height="34.13"/><rect class="cls-8" x="634.91" y="514.22" width="7.52" height="34.13"/><rect class="cls-5" x="634.91" y="556.32" width="7.52" height="34.13"/><rect class="cls-5" x="589.42" y="590.46" width="2.23" height="43.28"/><rect class="cls-8" x="474.34" y="664.74" width="18.82" height="34.13"/><rect class="cls-8" x="497.36" y="664.74" width="18.82" height="34.13"/><rect class="cls-8" x="527.73" y="664.74" width="18.82" height="34.13"/><rect class="cls-8" x="550.75" y="664.74" width="18.82" height="34.13"/><rect class="cls-8" x="581.12" y="664.74" width="18.82" height="34.13"/><rect class="cls-8" x="604.14" y="664.74" width="18.82" height="34.13"/><rect class="cls-5" x="481.86" y="635.25" width="2.23" height="29.49"/><rect class="cls-5" x="505.66" y="635.25" width="2.23" height="29.49"/><rect class="cls-5" x="536.02" y="635.25" width="2.23" height="29.49"/><rect class="cls-5" x="559.05" y="635.25" width="2.23" height="29.49"/><rect class="cls-5" x="589.41" y="635.25" width="2.23" height="29.49"/><rect class="cls-5" x="612.44" y="635.25" width="2.23" height="29.49"/><rect class="cls-5" x="573.49" y="542.11" width="2.23" height="185.49" transform="translate(-60.25 1209.45) rotate(-90)"/><rect class="cls-5" x="612.44" y="590.46" width="2.23" height="43.28"/><rect class="cls-5" x="481.86" y="590.46" width="2.23" height="43.28"/><rect class="cls-5" x="504.88" y="590.46" width="2.23" height="43.28"/><rect class="cls-5" x="536.02" y="466.34" width="2.23" height="47.89"/><rect class="cls-5" x="559.04" y="466.34" width="2.23" height="47.89"/><polygon class="cls-16" points="262.1 454.52 257.02 473.92 252.11 474.86 262.1 454.52"/><polygon class="cls-16" points="261.29 473.11 257.86 473.76 260.05 465.45 263.4 464.81 261.29 473.11"/><polygon class="cls-16" points="259.17 484.05 264.25 464.64 269.16 463.7 259.17 484.05"/></g></svg>